<mxfile host="app.diagrams.net" agent="Mozilla/5.0 (Windows NT 10.0; Win64; x64) AppleWebKit/537.36 (KHTML, like Gecko) Chrome/129.0.0.0 Safari/537.36 Edg/129.0.0.0" version="24.7.17">
  <diagram name="PÃ gina-1" id="SRd085F0_NReQPcWsws4">
    <mxGraphModel dx="1968" dy="598" grid="1" gridSize="10" guides="1" tooltips="1" connect="1" arrows="1" fold="1" page="1" pageScale="1" pageWidth="827" pageHeight="1169" math="0" shadow="0">
      <root>
        <mxCell id="0" />
        <mxCell id="1" parent="0" />
        <mxCell id="tAQXnPftDMbQxo3-cld4-1" value="client" style="swimlane;fontStyle=0;childLayout=stackLayout;horizontal=1;startSize=30;horizontalStack=0;resizeParent=1;resizeParentMax=0;resizeLast=0;collapsible=1;marginBottom=0;whiteSpace=wrap;html=1;" parent="1" vertex="1">
          <mxGeometry x="60" y="270" width="140" height="60" as="geometry" />
        </mxCell>
        <mxCell id="tAQXnPftDMbQxo3-cld4-14" value="&lt;u&gt;codi_client&lt;/u&gt;" style="text;strokeColor=none;fillColor=none;align=left;verticalAlign=middle;spacingLeft=4;spacingRight=4;overflow=hidden;points=[[0,0.5],[1,0.5]];portConstraint=eastwest;rotatable=0;whiteSpace=wrap;html=1;" parent="tAQXnPftDMbQxo3-cld4-1" vertex="1">
          <mxGeometry y="30" width="140" height="30" as="geometry" />
        </mxCell>
        <mxCell id="tAQXnPftDMbQxo3-cld4-7" value="treballador" style="swimlane;fontStyle=0;childLayout=stackLayout;horizontal=1;startSize=30;horizontalStack=0;resizeParent=1;resizeParentMax=0;resizeLast=0;collapsible=1;marginBottom=0;whiteSpace=wrap;html=1;" parent="1" vertex="1">
          <mxGeometry x="510" y="350" width="140" height="60" as="geometry" />
        </mxCell>
        <mxCell id="tAQXnPftDMbQxo3-cld4-8" value="&lt;u&gt;codi_treballador&lt;/u&gt;" style="text;strokeColor=none;fillColor=none;align=left;verticalAlign=middle;spacingLeft=4;spacingRight=4;overflow=hidden;points=[[0,0.5],[1,0.5]];portConstraint=eastwest;rotatable=0;whiteSpace=wrap;html=1;" parent="tAQXnPftDMbQxo3-cld4-7" vertex="1">
          <mxGeometry y="30" width="140" height="30" as="geometry" />
        </mxCell>
        <mxCell id="tAQXnPftDMbQxo3-cld4-15" value="immoble" style="swimlane;fontStyle=0;childLayout=stackLayout;horizontal=1;startSize=30;horizontalStack=0;resizeParent=1;resizeParentMax=0;resizeLast=0;collapsible=1;marginBottom=0;whiteSpace=wrap;html=1;" parent="1" vertex="1">
          <mxGeometry x="60" y="855" width="140" height="150" as="geometry" />
        </mxCell>
        <mxCell id="tAQXnPftDMbQxo3-cld4-16" value="&lt;u&gt;codi_immoble&lt;/u&gt;" style="text;strokeColor=none;fillColor=none;align=left;verticalAlign=middle;spacingLeft=4;spacingRight=4;overflow=hidden;points=[[0,0.5],[1,0.5]];portConstraint=eastwest;rotatable=0;whiteSpace=wrap;html=1;" parent="tAQXnPftDMbQxo3-cld4-15" vertex="1">
          <mxGeometry y="30" width="140" height="30" as="geometry" />
        </mxCell>
        <mxCell id="tAQXnPftDMbQxo3-cld4-17" value="metre" style="text;strokeColor=none;fillColor=none;align=left;verticalAlign=middle;spacingLeft=4;spacingRight=4;overflow=hidden;points=[[0,0.5],[1,0.5]];portConstraint=eastwest;rotatable=0;whiteSpace=wrap;html=1;" parent="tAQXnPftDMbQxo3-cld4-15" vertex="1">
          <mxGeometry y="60" width="140" height="30" as="geometry" />
        </mxCell>
        <mxCell id="tAQXnPftDMbQxo3-cld4-18" value="descripcio" style="text;strokeColor=none;fillColor=none;align=left;verticalAlign=middle;spacingLeft=4;spacingRight=4;overflow=hidden;points=[[0,0.5],[1,0.5]];portConstraint=eastwest;rotatable=0;whiteSpace=wrap;html=1;" parent="tAQXnPftDMbQxo3-cld4-15" vertex="1">
          <mxGeometry y="90" width="140" height="30" as="geometry" />
        </mxCell>
        <mxCell id="tAQXnPftDMbQxo3-cld4-19" value="adreca" style="text;strokeColor=none;fillColor=none;align=left;verticalAlign=middle;spacingLeft=4;spacingRight=4;overflow=hidden;points=[[0,0.5],[1,0.5]];portConstraint=eastwest;rotatable=0;whiteSpace=wrap;html=1;" parent="tAQXnPftDMbQxo3-cld4-15" vertex="1">
          <mxGeometry y="120" width="140" height="30" as="geometry" />
        </mxCell>
        <mxCell id="tAQXnPftDMbQxo3-cld4-22" value="pis" style="swimlane;fontStyle=0;childLayout=stackLayout;horizontal=1;startSize=30;horizontalStack=0;resizeParent=1;resizeParentMax=0;resizeLast=0;collapsible=1;marginBottom=0;whiteSpace=wrap;html=1;" parent="1" vertex="1">
          <mxGeometry x="60" y="1109" width="140" height="60" as="geometry" />
        </mxCell>
        <mxCell id="tAQXnPftDMbQxo3-cld4-23" value="&lt;u&gt;codi_pis&lt;/u&gt;" style="text;strokeColor=none;fillColor=none;align=left;verticalAlign=middle;spacingLeft=4;spacingRight=4;overflow=hidden;points=[[0,0.5],[1,0.5]];portConstraint=eastwest;rotatable=0;whiteSpace=wrap;html=1;" parent="tAQXnPftDMbQxo3-cld4-22" vertex="1">
          <mxGeometry y="30" width="140" height="30" as="geometry" />
        </mxCell>
        <mxCell id="tAQXnPftDMbQxo3-cld4-27" value="local" style="swimlane;fontStyle=0;childLayout=stackLayout;horizontal=1;startSize=30;horizontalStack=0;resizeParent=1;resizeParentMax=0;resizeLast=0;collapsible=1;marginBottom=0;whiteSpace=wrap;html=1;" parent="1" vertex="1">
          <mxGeometry x="-210" y="1005" width="140" height="120" as="geometry" />
        </mxCell>
        <mxCell id="eBgOaKsO6VGSohHFR5Lq-27" value="&lt;u&gt;codi_immoble&lt;/u&gt;" style="text;strokeColor=none;fillColor=none;align=left;verticalAlign=middle;spacingLeft=4;spacingRight=4;overflow=hidden;points=[[0,0.5],[1,0.5]];portConstraint=eastwest;rotatable=0;whiteSpace=wrap;html=1;" vertex="1" parent="tAQXnPftDMbQxo3-cld4-27">
          <mxGeometry y="30" width="140" height="30" as="geometry" />
        </mxCell>
        <mxCell id="tAQXnPftDMbQxo3-cld4-29" value="us_local" style="text;strokeColor=none;fillColor=none;align=left;verticalAlign=middle;spacingLeft=4;spacingRight=4;overflow=hidden;points=[[0,0.5],[1,0.5]];portConstraint=eastwest;rotatable=0;whiteSpace=wrap;html=1;" parent="tAQXnPftDMbQxo3-cld4-27" vertex="1">
          <mxGeometry y="60" width="140" height="30" as="geometry" />
        </mxCell>
        <mxCell id="tAQXnPftDMbQxo3-cld4-28" value="servei" style="text;strokeColor=none;fillColor=none;align=left;verticalAlign=middle;spacingLeft=4;spacingRight=4;overflow=hidden;points=[[0,0.5],[1,0.5]];portConstraint=eastwest;rotatable=0;whiteSpace=wrap;html=1;" parent="tAQXnPftDMbQxo3-cld4-27" vertex="1">
          <mxGeometry y="90" width="140" height="30" as="geometry" />
        </mxCell>
        <mxCell id="tAQXnPftDMbQxo3-cld4-30" value="placa_parking" style="swimlane;fontStyle=0;childLayout=stackLayout;horizontal=1;startSize=30;horizontalStack=0;resizeParent=1;resizeParentMax=0;resizeLast=0;collapsible=1;marginBottom=0;whiteSpace=wrap;html=1;" parent="1" vertex="1">
          <mxGeometry x="320" y="1035" width="140" height="120" as="geometry" />
        </mxCell>
        <mxCell id="eBgOaKsO6VGSohHFR5Lq-29" value="&lt;u&gt;codi_immoble&lt;/u&gt;" style="text;strokeColor=none;fillColor=none;align=left;verticalAlign=middle;spacingLeft=4;spacingRight=4;overflow=hidden;points=[[0,0.5],[1,0.5]];portConstraint=eastwest;rotatable=0;whiteSpace=wrap;html=1;" vertex="1" parent="tAQXnPftDMbQxo3-cld4-30">
          <mxGeometry y="30" width="140" height="30" as="geometry" />
        </mxCell>
        <mxCell id="tAQXnPftDMbQxo3-cld4-31" value="num_placa" style="text;strokeColor=none;fillColor=none;align=left;verticalAlign=middle;spacingLeft=4;spacingRight=4;overflow=hidden;points=[[0,0.5],[1,0.5]];portConstraint=eastwest;rotatable=0;whiteSpace=wrap;html=1;" parent="tAQXnPftDMbQxo3-cld4-30" vertex="1">
          <mxGeometry y="60" width="140" height="30" as="geometry" />
        </mxCell>
        <mxCell id="tAQXnPftDMbQxo3-cld4-32" value="planta_placa" style="text;strokeColor=none;fillColor=none;align=left;verticalAlign=middle;spacingLeft=4;spacingRight=4;overflow=hidden;points=[[0,0.5],[1,0.5]];portConstraint=eastwest;rotatable=0;whiteSpace=wrap;html=1;" parent="tAQXnPftDMbQxo3-cld4-30" vertex="1">
          <mxGeometry y="90" width="140" height="30" as="geometry" />
        </mxCell>
        <mxCell id="tAQXnPftDMbQxo3-cld4-34" value="compra" style="swimlane;fontStyle=0;childLayout=stackLayout;horizontal=1;startSize=30;horizontalStack=0;resizeParent=1;resizeParentMax=0;resizeLast=0;collapsible=1;marginBottom=0;whiteSpace=wrap;html=1;" parent="1" vertex="1">
          <mxGeometry x="-80" y="480" width="140" height="120" as="geometry" />
        </mxCell>
        <mxCell id="tAQXnPftDMbQxo3-cld4-35" value="&lt;u&gt;codi_compra&lt;/u&gt;" style="text;strokeColor=none;fillColor=none;align=left;verticalAlign=middle;spacingLeft=4;spacingRight=4;overflow=hidden;points=[[0,0.5],[1,0.5]];portConstraint=eastwest;rotatable=0;whiteSpace=wrap;html=1;" parent="tAQXnPftDMbQxo3-cld4-34" vertex="1">
          <mxGeometry y="30" width="140" height="30" as="geometry" />
        </mxCell>
        <mxCell id="tAQXnPftDMbQxo3-cld4-37" value="data_compra" style="text;strokeColor=none;fillColor=none;align=left;verticalAlign=middle;spacingLeft=4;spacingRight=4;overflow=hidden;points=[[0,0.5],[1,0.5]];portConstraint=eastwest;rotatable=0;whiteSpace=wrap;html=1;" parent="tAQXnPftDMbQxo3-cld4-34" vertex="1">
          <mxGeometry y="60" width="140" height="30" as="geometry" />
        </mxCell>
        <mxCell id="tAQXnPftDMbQxo3-cld4-36" value="valor_compra" style="text;strokeColor=none;fillColor=none;align=left;verticalAlign=middle;spacingLeft=4;spacingRight=4;overflow=hidden;points=[[0,0.5],[1,0.5]];portConstraint=eastwest;rotatable=0;whiteSpace=wrap;html=1;" parent="tAQXnPftDMbQxo3-cld4-34" vertex="1">
          <mxGeometry y="90" width="140" height="30" as="geometry" />
        </mxCell>
        <mxCell id="tAQXnPftDMbQxo3-cld4-38" value="lloguer" style="swimlane;fontStyle=0;childLayout=stackLayout;horizontal=1;startSize=30;horizontalStack=0;resizeParent=1;resizeParentMax=0;resizeLast=0;collapsible=1;marginBottom=0;whiteSpace=wrap;html=1;" parent="1" vertex="1">
          <mxGeometry x="180" y="480" width="140" height="240" as="geometry" />
        </mxCell>
        <mxCell id="eBgOaKsO6VGSohHFR5Lq-30" value="&lt;u&gt;id_lloguer&lt;/u&gt;" style="text;strokeColor=none;fillColor=none;align=left;verticalAlign=middle;spacingLeft=4;spacingRight=4;overflow=hidden;points=[[0,0.5],[1,0.5]];portConstraint=eastwest;rotatable=0;whiteSpace=wrap;html=1;" vertex="1" parent="tAQXnPftDMbQxo3-cld4-38">
          <mxGeometry y="30" width="140" height="30" as="geometry" />
        </mxCell>
        <mxCell id="tAQXnPftDMbQxo3-cld4-39" value="num_lloguer" style="text;strokeColor=none;fillColor=none;align=left;verticalAlign=middle;spacingLeft=4;spacingRight=4;overflow=hidden;points=[[0,0.5],[1,0.5]];portConstraint=eastwest;rotatable=0;whiteSpace=wrap;html=1;" parent="tAQXnPftDMbQxo3-cld4-38" vertex="1">
          <mxGeometry y="60" width="140" height="30" as="geometry" />
        </mxCell>
        <mxCell id="tAQXnPftDMbQxo3-cld4-40" value="nom_agent" style="text;strokeColor=none;fillColor=none;align=left;verticalAlign=middle;spacingLeft=4;spacingRight=4;overflow=hidden;points=[[0,0.5],[1,0.5]];portConstraint=eastwest;rotatable=0;whiteSpace=wrap;html=1;" parent="tAQXnPftDMbQxo3-cld4-38" vertex="1">
          <mxGeometry y="90" width="140" height="30" as="geometry" />
        </mxCell>
        <mxCell id="tAQXnPftDMbQxo3-cld4-43" value="nom_persona_lloguer" style="text;strokeColor=none;fillColor=none;align=left;verticalAlign=middle;spacingLeft=4;spacingRight=4;overflow=hidden;points=[[0,0.5],[1,0.5]];portConstraint=eastwest;rotatable=0;whiteSpace=wrap;html=1;" parent="tAQXnPftDMbQxo3-cld4-38" vertex="1">
          <mxGeometry y="120" width="140" height="30" as="geometry" />
        </mxCell>
        <mxCell id="tAQXnPftDMbQxo3-cld4-41" value="any_lloguer" style="text;strokeColor=none;fillColor=none;align=left;verticalAlign=middle;spacingLeft=4;spacingRight=4;overflow=hidden;points=[[0,0.5],[1,0.5]];portConstraint=eastwest;rotatable=0;whiteSpace=wrap;html=1;" parent="tAQXnPftDMbQxo3-cld4-38" vertex="1">
          <mxGeometry y="150" width="140" height="30" as="geometry" />
        </mxCell>
        <mxCell id="tAQXnPftDMbQxo3-cld4-44" value="mes_lloguer" style="text;strokeColor=none;fillColor=none;align=left;verticalAlign=middle;spacingLeft=4;spacingRight=4;overflow=hidden;points=[[0,0.5],[1,0.5]];portConstraint=eastwest;rotatable=0;whiteSpace=wrap;html=1;" parent="tAQXnPftDMbQxo3-cld4-38" vertex="1">
          <mxGeometry y="180" width="140" height="30" as="geometry" />
        </mxCell>
        <mxCell id="tAQXnPftDMbQxo3-cld4-42" value="valor_lloguer" style="text;strokeColor=none;fillColor=none;align=left;verticalAlign=middle;spacingLeft=4;spacingRight=4;overflow=hidden;points=[[0,0.5],[1,0.5]];portConstraint=eastwest;rotatable=0;whiteSpace=wrap;html=1;" parent="tAQXnPftDMbQxo3-cld4-38" vertex="1">
          <mxGeometry y="210" width="140" height="30" as="geometry" />
        </mxCell>
        <mxCell id="Jhn1tIQHhHU0NPs5Rsfx-37" style="edgeStyle=orthogonalEdgeStyle;rounded=0;orthogonalLoop=1;jettySize=auto;html=1;exitX=0;exitY=0.5;exitDx=0;exitDy=0;entryX=0.657;entryY=-0.01;entryDx=0;entryDy=0;entryPerimeter=0;" parent="1" target="tAQXnPftDMbQxo3-cld4-1" edge="1">
          <mxGeometry relative="1" as="geometry">
            <mxPoint x="330" y="95" as="sourcePoint" />
          </mxGeometry>
        </mxCell>
        <mxCell id="Jhn1tIQHhHU0NPs5Rsfx-38" style="edgeStyle=orthogonalEdgeStyle;rounded=0;orthogonalLoop=1;jettySize=auto;html=1;exitX=1;exitY=0.5;exitDx=0;exitDy=0;entryX=0.421;entryY=0;entryDx=0;entryDy=0;entryPerimeter=0;" parent="1" target="tAQXnPftDMbQxo3-cld4-7" edge="1">
          <mxGeometry relative="1" as="geometry">
            <mxPoint x="470" y="95" as="sourcePoint" />
          </mxGeometry>
        </mxCell>
        <mxCell id="Jhn1tIQHhHU0NPs5Rsfx-39" value="la compra pot tenir diversos titulars." style="text;strokeColor=none;fillColor=none;align=left;verticalAlign=middle;spacingLeft=4;spacingRight=4;overflow=hidden;points=[[0,0.5],[1,0.5]];portConstraint=eastwest;rotatable=0;whiteSpace=wrap;html=1;" parent="1" vertex="1">
          <mxGeometry x="-89" y="270" width="120" height="50" as="geometry" />
        </mxCell>
        <mxCell id="eBgOaKsO6VGSohHFR5Lq-1" value="persona" style="swimlane;fontStyle=0;childLayout=stackLayout;horizontal=1;startSize=30;horizontalStack=0;resizeParent=1;resizeParentMax=0;resizeLast=0;collapsible=1;marginBottom=0;whiteSpace=wrap;html=1;" vertex="1" parent="1">
          <mxGeometry x="330" y="50" width="140" height="180" as="geometry" />
        </mxCell>
        <mxCell id="eBgOaKsO6VGSohHFR5Lq-3" value="&lt;u&gt;dni&lt;/u&gt;" style="text;strokeColor=none;fillColor=none;align=left;verticalAlign=middle;spacingLeft=4;spacingRight=4;overflow=hidden;points=[[0,0.5],[1,0.5]];portConstraint=eastwest;rotatable=0;whiteSpace=wrap;html=1;" vertex="1" parent="eBgOaKsO6VGSohHFR5Lq-1">
          <mxGeometry y="30" width="140" height="30" as="geometry" />
        </mxCell>
        <mxCell id="eBgOaKsO6VGSohHFR5Lq-4" value="telefon_fix" style="text;strokeColor=none;fillColor=none;align=left;verticalAlign=middle;spacingLeft=4;spacingRight=4;overflow=hidden;points=[[0,0.5],[1,0.5]];portConstraint=eastwest;rotatable=0;whiteSpace=wrap;html=1;" vertex="1" parent="eBgOaKsO6VGSohHFR5Lq-1">
          <mxGeometry y="60" width="140" height="30" as="geometry" />
        </mxCell>
        <mxCell id="eBgOaKsO6VGSohHFR5Lq-5" value="telefon_mobil&lt;span style=&quot;color: rgba(0, 0, 0, 0); font-family: monospace; font-size: 0px; text-wrap: nowrap;&quot;&gt;%3CmxGraphModel%3E%3Croot%3E%3CmxCell%20id%3D%220%22%2F%3E%3CmxCell%20id%3D%221%22%20parent%3D%220%22%2F%3E%3CmxCell%20id%3D%222%22%20value%3D%22%22%20style%3D%22endArrow%3Dclassic%3BstartArrow%3Dclassic%3Bhtml%3D1%3Brounded%3D0%3BexitX%3D1.025%3BexitY%3D0.1%3BexitDx%3D0%3BexitDy%3D0%3BexitPerimeter%3D0%3BentryX%3D0.006%3BentryY%3D0.9%3BentryDx%3D0%3BentryDy%3D0%3BentryPerimeter%3D0%3B%22%20edge%3D%221%22%20parent%3D%221%22%3E%3CmxGeometry%20width%3D%2250%22%20height%3D%2250%22%20relative%3D%221%22%20as%3D%22geometry%22%3E%3CmxPoint%20x%3D%22434%22%20y%3D%22309%22%20as%3D%22sourcePoint%22%2F%3E%3CmxPoint%20x%3D%22601%22%20y%3D%22250%22%20as%3D%22targetPoint%22%2F%3E%3C%2FmxGeometry%3E%3C%2FmxCell%3E%3C%2Froot%3E%3C%2FmxGraphModel%3E&lt;/span&gt;" style="text;strokeColor=none;fillColor=none;align=left;verticalAlign=middle;spacingLeft=4;spacingRight=4;overflow=hidden;points=[[0,0.5],[1,0.5]];portConstraint=eastwest;rotatable=0;whiteSpace=wrap;html=1;" vertex="1" parent="eBgOaKsO6VGSohHFR5Lq-1">
          <mxGeometry y="90" width="140" height="30" as="geometry" />
        </mxCell>
        <mxCell id="eBgOaKsO6VGSohHFR5Lq-6" value="nom" style="text;strokeColor=none;fillColor=none;align=left;verticalAlign=middle;spacingLeft=4;spacingRight=4;overflow=hidden;points=[[0,0.5],[1,0.5]];portConstraint=eastwest;rotatable=0;whiteSpace=wrap;html=1;" vertex="1" parent="eBgOaKsO6VGSohHFR5Lq-1">
          <mxGeometry y="120" width="140" height="30" as="geometry" />
        </mxCell>
        <mxCell id="eBgOaKsO6VGSohHFR5Lq-7" value="Cognom2" style="text;strokeColor=none;fillColor=none;align=left;verticalAlign=middle;spacingLeft=4;spacingRight=4;overflow=hidden;points=[[0,0.5],[1,0.5]];portConstraint=eastwest;rotatable=0;whiteSpace=wrap;html=1;" vertex="1" parent="eBgOaKsO6VGSohHFR5Lq-1">
          <mxGeometry y="150" width="140" height="30" as="geometry" />
        </mxCell>
        <mxCell id="eBgOaKsO6VGSohHFR5Lq-10" value="" style="endArrow=classic;startArrow=classic;html=1;rounded=0;exitX=0.5;exitY=0;exitDx=0;exitDy=0;" edge="1" parent="1" source="tAQXnPftDMbQxo3-cld4-34">
          <mxGeometry width="50" height="50" relative="1" as="geometry">
            <mxPoint x="300" y="520" as="sourcePoint" />
            <mxPoint x="57" y="310" as="targetPoint" />
            <Array as="points">
              <mxPoint x="-10" y="440" />
              <mxPoint x="30" y="440" />
              <mxPoint x="30" y="310" />
            </Array>
          </mxGeometry>
        </mxCell>
        <mxCell id="eBgOaKsO6VGSohHFR5Lq-11" value="" style="endArrow=classic;startArrow=classic;html=1;rounded=0;exitX=0.557;exitY=0.014;exitDx=0;exitDy=0;exitPerimeter=0;entryX=1;entryY=0.5;entryDx=0;entryDy=0;" edge="1" parent="1" source="tAQXnPftDMbQxo3-cld4-38" target="tAQXnPftDMbQxo3-cld4-14">
          <mxGeometry width="50" height="50" relative="1" as="geometry">
            <mxPoint y="490" as="sourcePoint" />
            <mxPoint x="210" y="320" as="targetPoint" />
            <Array as="points">
              <mxPoint x="258" y="410" />
              <mxPoint x="220" y="410" />
              <mxPoint x="220" y="315" />
            </Array>
          </mxGeometry>
        </mxCell>
        <mxCell id="eBgOaKsO6VGSohHFR5Lq-12" value="" style="endArrow=classic;startArrow=classic;html=1;rounded=0;entryX=0.486;entryY=1.067;entryDx=0;entryDy=0;entryPerimeter=0;exitX=0.164;exitY=-0.013;exitDx=0;exitDy=0;exitPerimeter=0;" edge="1" parent="1" source="tAQXnPftDMbQxo3-cld4-15" target="tAQXnPftDMbQxo3-cld4-36">
          <mxGeometry width="50" height="50" relative="1" as="geometry">
            <mxPoint x="90" y="740" as="sourcePoint" />
            <mxPoint x="67" y="320" as="targetPoint" />
            <Array as="points">
              <mxPoint x="83" y="790" />
              <mxPoint x="20" y="790" />
              <mxPoint x="-12" y="790" />
            </Array>
          </mxGeometry>
        </mxCell>
        <mxCell id="eBgOaKsO6VGSohHFR5Lq-13" value="" style="endArrow=classic;startArrow=classic;html=1;rounded=0;entryX=0.436;entryY=1.033;entryDx=0;entryDy=0;entryPerimeter=0;exitX=0.636;exitY=0.007;exitDx=0;exitDy=0;exitPerimeter=0;" edge="1" parent="1" source="tAQXnPftDMbQxo3-cld4-15" target="tAQXnPftDMbQxo3-cld4-42">
          <mxGeometry width="50" height="50" relative="1" as="geometry">
            <mxPoint x="93" y="863" as="sourcePoint" />
            <mxPoint x="-2" y="612" as="targetPoint" />
            <Array as="points">
              <mxPoint x="149" y="790" />
              <mxPoint x="240" y="790" />
            </Array>
          </mxGeometry>
        </mxCell>
        <mxCell id="eBgOaKsO6VGSohHFR5Lq-14" value="" style="endArrow=classic;startArrow=classic;html=1;rounded=0;exitX=0.5;exitY=0;exitDx=0;exitDy=0;entryX=0.243;entryY=1.033;entryDx=0;entryDy=0;entryPerimeter=0;" edge="1" parent="1" source="tAQXnPftDMbQxo3-cld4-27" target="tAQXnPftDMbQxo3-cld4-19">
          <mxGeometry width="50" height="50" relative="1" as="geometry">
            <mxPoint x="300" y="820" as="sourcePoint" />
            <mxPoint x="350" y="770" as="targetPoint" />
            <Array as="points">
              <mxPoint x="-140" y="950" />
              <mxPoint y="950" />
              <mxPoint y="1050" />
              <mxPoint x="94" y="1050" />
            </Array>
          </mxGeometry>
        </mxCell>
        <mxCell id="eBgOaKsO6VGSohHFR5Lq-15" value="" style="endArrow=classic;startArrow=classic;html=1;rounded=0;exitX=0.429;exitY=-0.017;exitDx=0;exitDy=0;exitPerimeter=0;" edge="1" parent="1" source="tAQXnPftDMbQxo3-cld4-22">
          <mxGeometry width="50" height="50" relative="1" as="geometry">
            <mxPoint x="20" y="1160" as="sourcePoint" />
            <mxPoint x="140" y="1000" as="targetPoint" />
            <Array as="points">
              <mxPoint x="120" y="1050" />
              <mxPoint x="140" y="1050" />
            </Array>
          </mxGeometry>
        </mxCell>
        <mxCell id="eBgOaKsO6VGSohHFR5Lq-16" value="" style="endArrow=classic;startArrow=classic;html=1;rounded=0;exitX=0.25;exitY=0;exitDx=0;exitDy=0;entryX=0.921;entryY=0.9;entryDx=0;entryDy=0;entryPerimeter=0;" edge="1" parent="1" source="tAQXnPftDMbQxo3-cld4-30" target="tAQXnPftDMbQxo3-cld4-19">
          <mxGeometry width="50" height="50" relative="1" as="geometry">
            <mxPoint x="180" y="1189" as="sourcePoint" />
            <mxPoint x="142" y="1016" as="targetPoint" />
            <Array as="points">
              <mxPoint x="355" y="970" />
              <mxPoint x="280" y="970" />
              <mxPoint x="280" y="1080" />
              <mxPoint x="190" y="1080" />
            </Array>
          </mxGeometry>
        </mxCell>
        <mxCell id="eBgOaKsO6VGSohHFR5Lq-17" value="" style="endArrow=classic;startArrow=classic;html=1;rounded=0;entryX=0.421;entryY=1.133;entryDx=0;entryDy=0;entryPerimeter=0;exitX=1.021;exitY=0.033;exitDx=0;exitDy=0;exitPerimeter=0;" edge="1" parent="1" source="tAQXnPftDMbQxo3-cld4-43" target="tAQXnPftDMbQxo3-cld4-8">
          <mxGeometry width="50" height="50" relative="1" as="geometry">
            <mxPoint x="159" y="866" as="sourcePoint" />
            <mxPoint x="251" y="701" as="targetPoint" />
            <Array as="points">
              <mxPoint x="569" y="601" />
            </Array>
          </mxGeometry>
        </mxCell>
        <mxCell id="eBgOaKsO6VGSohHFR5Lq-18" value="" style="endArrow=classic;startArrow=classic;html=1;rounded=0;exitX=1.1;exitY=0.14;exitDx=0;exitDy=0;exitPerimeter=0;entryX=0.526;entryY=1.02;entryDx=0;entryDy=0;entryPerimeter=0;" edge="1" parent="1" source="eBgOaKsO6VGSohHFR5Lq-19" target="tAQXnPftDMbQxo3-cld4-32">
          <mxGeometry width="50" height="50" relative="1" as="geometry">
            <mxPoint x="300" y="1120" as="sourcePoint" />
            <mxPoint x="350" y="1070" as="targetPoint" />
            <Array as="points">
              <mxPoint x="124" y="1230" />
              <mxPoint x="394" y="1230" />
            </Array>
          </mxGeometry>
        </mxCell>
        <mxCell id="eBgOaKsO6VGSohHFR5Lq-19" value="0,1" style="text;strokeColor=none;fillColor=none;spacingLeft=4;spacingRight=4;overflow=hidden;rotatable=0;points=[[0,0.5],[1,0.5]];portConstraint=eastwest;fontSize=12;whiteSpace=wrap;html=1;" vertex="1" parent="1">
          <mxGeometry x="80" y="1169" width="40" height="30" as="geometry" />
        </mxCell>
        <mxCell id="eBgOaKsO6VGSohHFR5Lq-20" value="0,1" style="text;strokeColor=none;fillColor=none;spacingLeft=4;spacingRight=4;overflow=hidden;rotatable=0;points=[[0,0.5],[1,0.5]];portConstraint=eastwest;fontSize=12;whiteSpace=wrap;html=1;" vertex="1" parent="1">
          <mxGeometry x="400" y="1155" width="40" height="30" as="geometry" />
        </mxCell>
        <mxCell id="eBgOaKsO6VGSohHFR5Lq-21" value="0,1" style="text;strokeColor=none;fillColor=none;spacingLeft=4;spacingRight=4;overflow=hidden;rotatable=0;points=[[0,0.5],[1,0.5]];portConstraint=eastwest;fontSize=12;whiteSpace=wrap;html=1;" vertex="1" parent="1">
          <mxGeometry x="10" y="1120" width="40" height="30" as="geometry" />
        </mxCell>
        <mxCell id="eBgOaKsO6VGSohHFR5Lq-22" value="0,1" style="text;strokeColor=none;fillColor=none;spacingLeft=4;spacingRight=4;overflow=hidden;rotatable=0;points=[[0,0.5],[1,0.5]];portConstraint=eastwest;fontSize=12;whiteSpace=wrap;html=1;" vertex="1" parent="1">
          <mxGeometry x="170" y="1150" width="40" height="30" as="geometry" />
        </mxCell>
        <mxCell id="eBgOaKsO6VGSohHFR5Lq-23" value="0,1" style="text;strokeColor=none;fillColor=none;spacingLeft=4;spacingRight=4;overflow=hidden;rotatable=0;points=[[0,0.5],[1,0.5]];portConstraint=eastwest;fontSize=12;whiteSpace=wrap;html=1;" vertex="1" parent="1">
          <mxGeometry x="360" y="1005" width="40" height="30" as="geometry" />
        </mxCell>
        <mxCell id="eBgOaKsO6VGSohHFR5Lq-24" value="0,1" style="text;strokeColor=none;fillColor=none;spacingLeft=4;spacingRight=4;overflow=hidden;rotatable=0;points=[[0,0.5],[1,0.5]];portConstraint=eastwest;fontSize=12;whiteSpace=wrap;html=1;" vertex="1" parent="1">
          <mxGeometry x="110" y="1005" width="40" height="30" as="geometry" />
        </mxCell>
        <mxCell id="eBgOaKsO6VGSohHFR5Lq-25" value="0,1" style="text;strokeColor=none;fillColor=none;spacingLeft=4;spacingRight=4;overflow=hidden;rotatable=0;points=[[0,0.5],[1,0.5]];portConstraint=eastwest;fontSize=12;whiteSpace=wrap;html=1;" vertex="1" parent="1">
          <mxGeometry x="190" y="1005" width="40" height="30" as="geometry" />
        </mxCell>
        <mxCell id="eBgOaKsO6VGSohHFR5Lq-26" value="0,1" style="text;strokeColor=none;fillColor=none;spacingLeft=4;spacingRight=4;overflow=hidden;rotatable=0;points=[[0,0.5],[1,0.5]];portConstraint=eastwest;fontSize=12;whiteSpace=wrap;html=1;" vertex="1" parent="1">
          <mxGeometry x="40" y="1005" width="40" height="30" as="geometry" />
        </mxCell>
        <mxCell id="eBgOaKsO6VGSohHFR5Lq-31" value="1,N" style="text;strokeColor=none;fillColor=none;spacingLeft=4;spacingRight=4;overflow=hidden;rotatable=0;points=[[0,0.5],[1,0.5]];portConstraint=eastwest;fontSize=12;whiteSpace=wrap;html=1;" vertex="1" parent="1">
          <mxGeometry x="31" y="285" width="40" height="30" as="geometry" />
        </mxCell>
        <mxCell id="eBgOaKsO6VGSohHFR5Lq-33" value="0,M" style="text;strokeColor=none;fillColor=none;spacingLeft=4;spacingRight=4;overflow=hidden;rotatable=0;points=[[0,0.5],[1,0.5]];portConstraint=eastwest;fontSize=12;whiteSpace=wrap;html=1;" vertex="1" parent="1">
          <mxGeometry x="-40" y="450" width="40" height="30" as="geometry" />
        </mxCell>
        <mxCell id="eBgOaKsO6VGSohHFR5Lq-34" value="0,M" style="text;strokeColor=none;fillColor=none;spacingLeft=4;spacingRight=4;overflow=hidden;rotatable=0;points=[[0,0.5],[1,0.5]];portConstraint=eastwest;fontSize=12;whiteSpace=wrap;html=1;" vertex="1" parent="1">
          <mxGeometry x="260" y="450" width="40" height="30" as="geometry" />
        </mxCell>
        <mxCell id="eBgOaKsO6VGSohHFR5Lq-35" value="1" style="text;strokeColor=none;fillColor=none;spacingLeft=4;spacingRight=4;overflow=hidden;rotatable=0;points=[[0,0.5],[1,0.5]];portConstraint=eastwest;fontSize=12;whiteSpace=wrap;html=1;" vertex="1" parent="1">
          <mxGeometry x="200" y="285" width="40" height="30" as="geometry" />
        </mxCell>
        <mxCell id="eBgOaKsO6VGSohHFR5Lq-36" value="1" style="text;strokeColor=none;fillColor=none;spacingLeft=4;spacingRight=4;overflow=hidden;rotatable=0;points=[[0,0.5],[1,0.5]];portConstraint=eastwest;fontSize=12;whiteSpace=wrap;html=1;" vertex="1" parent="1">
          <mxGeometry x="60" y="825" width="40" height="30" as="geometry" />
        </mxCell>
        <mxCell id="eBgOaKsO6VGSohHFR5Lq-37" value="1" style="text;strokeColor=none;fillColor=none;spacingLeft=4;spacingRight=4;overflow=hidden;rotatable=0;points=[[0,0.5],[1,0.5]];portConstraint=eastwest;fontSize=12;whiteSpace=wrap;html=1;" vertex="1" parent="1">
          <mxGeometry x="160" y="825" width="40" height="30" as="geometry" />
        </mxCell>
        <mxCell id="eBgOaKsO6VGSohHFR5Lq-38" value="0,M" style="text;strokeColor=none;fillColor=none;spacingLeft=4;spacingRight=4;overflow=hidden;rotatable=0;points=[[0,0.5],[1,0.5]];portConstraint=eastwest;fontSize=12;whiteSpace=wrap;html=1;" vertex="1" parent="1">
          <mxGeometry x="-60" y="600" width="40" height="30" as="geometry" />
        </mxCell>
        <mxCell id="eBgOaKsO6VGSohHFR5Lq-39" value="0,M" style="text;strokeColor=none;fillColor=none;spacingLeft=4;spacingRight=4;overflow=hidden;rotatable=0;points=[[0,0.5],[1,0.5]];portConstraint=eastwest;fontSize=12;whiteSpace=wrap;html=1;" vertex="1" parent="1">
          <mxGeometry x="250" y="720" width="40" height="30" as="geometry" />
        </mxCell>
        <mxCell id="eBgOaKsO6VGSohHFR5Lq-40" value="0,M" style="text;strokeColor=none;fillColor=none;spacingLeft=4;spacingRight=4;overflow=hidden;rotatable=0;points=[[0,0.5],[1,0.5]];portConstraint=eastwest;fontSize=12;whiteSpace=wrap;html=1;" vertex="1" parent="1">
          <mxGeometry x="330" y="570" width="40" height="30" as="geometry" />
        </mxCell>
        <mxCell id="eBgOaKsO6VGSohHFR5Lq-41" value="1" style="text;strokeColor=none;fillColor=none;spacingLeft=4;spacingRight=4;overflow=hidden;rotatable=0;points=[[0,0.5],[1,0.5]];portConstraint=eastwest;fontSize=12;whiteSpace=wrap;html=1;" vertex="1" parent="1">
          <mxGeometry x="570" y="410" width="40" height="30" as="geometry" />
        </mxCell>
        <mxCell id="eBgOaKsO6VGSohHFR5Lq-42" value="un agent/treballador&lt;div&gt;pot llogar de 0 a molts immobles&lt;/div&gt;" style="text;strokeColor=none;fillColor=none;align=left;verticalAlign=middle;spacingLeft=4;spacingRight=4;overflow=hidden;points=[[0,0.5],[1,0.5]];portConstraint=eastwest;rotatable=0;whiteSpace=wrap;html=1;" vertex="1" parent="1">
          <mxGeometry x="440" y="420" width="120" height="50" as="geometry" />
        </mxCell>
      </root>
    </mxGraphModel>
  </diagram>
</mxfile>
